<svg height="160pt" preserveAspectRatio="xMidYMid meet" viewBox="0 0 160 160" width="160pt" xmlns="http://www.w3.org/2000/svg"><g transform="matrix(.1 0 0 -.1 0 160)"><path d="m544 1575c-80-17-101-29-209-115-108-85-124-105-125-147 0-17-7-39-16-47-18-19-16-19-48-7-20 8-31 5-63-18-51-38-76-67-70-83 4-9 6-8 6 3 2 27 81 83 115 81 58-5 84 7 96 44 6 18 9 42 5 53-5 15 12 33 85 90 130 100 173 115 340 115 74 1 160-3 190-7 50-7 53-6 30 6-37 22-162 47-222 46-29 0-81-7-114-14z"/><path d="m1189 1542c-116-58-173-104-203-164-15-29-26-67-25-87 1-35 1-35 10 9 18 91 102 169 254 235 41 18 72 35 68 39-11 11-26 6-104-32z"/><path d="m1201 1405c-22-24-41-50-41-56 0-7 1-10 3-8s22 28 46 57c52 64 48 68-8 7z"/><path d="m548 1380c-28-27-49-53-45-56 4-4 16 1 26 10 11 10 25 15 31 11 15-9 49-84 50-108 0-30-37-74-67-80-16-3-40-9-55-12-19-5-34-1-56 15-25 19-40 22-86 18-69-6-99-28-86-64 7-18 6-24-4-24-19 0-42 29-65 83-23 53-42 62-36 17 2-18 22-51 50-82 43-48 55-80 17-45-24 22-29 22-68-8-18-14-36-25-40-25s-25 19-48 43l-40 42 28-40c52-73 119-135 144-135 14 0 46 16 73 36 42 31 49 40 49 70 0 44 17 50 77 30 27-8 60-18 75-21 14-3 46-24 70-47 69-68 179-210 174-224-3-8 0-11 9-8 13 5 45-41 45-64 0-33-212-262-340-367-36-29-90-64-120-78-55-24-110-75-110-103 0-20-18-17-23 4-3 11-5 8-6-9-3-62 88-139 165-139 79 0 138 60 284 290 88 139 209 309 220 310 3 0 91-118 195-262 226-311 258-348 306-348 66 0 129 63 129 129 0 27-57 94-503 588l-20 22 69 77c97 109 134 134 199 134 108 0 206 49 256 127 40 64 37 77-4 17-25-36-51-58-96-81-117-61-220-39-331 71-34 34-59 69-66 93l-11 38-4-67c-3-56-2-65 10-55 11 9 15 9 18 0 2-7 18-28 34-49 34-43 34-41 11-76-48-73-150-135-170-104-4 6-14 11-22 11s-14 5-13 12c2 7-3 10-10 8-13-4-118 129-161 205-18 31-26 60-26 95 0 30-11 74-25 110-30 71-30 73-8 97 34 38 1 16-49-32zm174-383c54-73 109-144 123-157 31-30 31-41-1-71-24-22-26-23-36-6-5 10-22 33-37 50-125 148-201 284-174 310 16 17 34-1 125-126zm-346-776c39-24 61-79 44-110-15-28-67-54-95-47-26 7-85 53-85 67 0 4 16-3 36-16 48-33 93-32 124 0 13 14 21 27 18 30-2 3-13-4-23-15-28-31-80-27-116 9-35 35-36 53-7 81 27 25 64 26 104 1z"/><path d="m1454 1324c-111-128-110-127-159-121-28 3-59 15-82 33-25 18-33 21-23 9 40-52 107-83 152-72 32 8 193 196 180 209-6 6-30-15-68-58z"/><path d="m644 698-19-23 23 19c21 18 27 26 19 26-2 0-12-10-23-22z"/><path d="m234 298-19-23 23 19c21 18 27 26 19 26-2 0-12-10-23-22z"/></g></svg>